<svg id="Layer_1" enable-background="new 0 0 496.025 496.025" height="512" viewBox="0 0 496.025 496.025" width="512" xmlns="http://www.w3.org/2000/svg">
    <g>
        <path fill="#bdbdbd" d="m201.58 360.033c5.728 0 9.652-5.913 7.319-11.221l-15.378-34.992 60.132-60.132c3.124-3.124 3.124-8.19 0-11.314s-8.189-3.124-11.313 0l-60.132 60.132-31.045-13.643c-4.048-1.779-8.765.061-10.542 4.105-1.778 4.045.06 8.765 4.105 10.543l33.201 14.591 16.326 37.148c1.317 2.997 4.25 4.783 7.327 4.783z"/>
        <path fill="#bdbdbd" d="m448.386 2.915-428.625 185.57c-25.028 10.845-26.683 45.804-2.665 58.904.47.256 11.609 5.134 36.257 15.966 4.045 1.778 8.765-.061 10.542-4.105 1.778-4.045-.06-8.765-4.105-10.543l-35.305-15.516c-12.01-6.819-11.156-24.482 1.634-30.024l428.625-185.57c14.975-6.49 30.177 8.706 23.686 23.688l-185.568 428.621c-5.563 12.837-23.237 13.596-30.026 1.636l-11.918-27.119c-1.777-4.044-6.498-5.883-10.542-4.105s-5.883 6.498-4.105 10.543c12.898 29.348 12.126 27.626 12.369 28.072 13.078 23.976 48.043 22.4 58.905-2.667l185.567-428.622c12.259-28.289-16.398-57.005-44.726-44.729z"/>
        <path fill="#bdbdbd" d="m125.654 250.374c-3.124-3.125-8.189-3.125-11.313 0l-72 72c-5.055 5.054-1.406 13.657 5.657 13.657 2.047 0 4.095-.781 5.657-2.343l72-72c3.123-3.124 3.123-8.19-.001-11.314z"/>
        <path fill="#bdbdbd" d="m277.654 346.374c-3.124-3.125-8.189-3.125-11.313 0l-84 84c-5.055 5.054-1.406 13.657 5.657 13.657 2.047 0 4.095-.781 5.657-2.343l84-84c3.123-3.124 3.123-8.19-.001-11.314z"/>
        <path fill="#bdbdbd" d="m130.34 354.374-64 64c-3.125 3.124-3.125 8.19 0 11.314 3.124 3.124 8.189 3.124 11.313 0l64-64c3.125-3.124 3.125-8.19 0-11.314-3.123-3.124-8.189-3.124-11.313 0z"/>
    </g>
</svg>
