<svg xmlns="http://www.w3.org/2000/svg" id="Capa_1" enable-background="new 0 0 512 512" height="512" viewBox="0 0 512 512" width="512">
    <g>
        <circle fill="#e34b4b" cx="176" cy="127.999" r="17"/>
        <path fill="#e34b4b" d="m163.658 328.524c5.959 8.627 18.726 8.624 24.684 0 .994-1.438 24.612-35.708 48.633-77.116 33.662-58.028 50.025-98.395 50.025-123.409 0-12.699-2.15-24.904-6.094-36.278-16.704-48.161-64.985-80.15-117.888-73.959-55.418 6.517-98.018 53.709-98.018 110.237 0 25.014 16.363 65.381 50.025 123.409 24.021 41.408 47.639 75.677 48.633 77.116zm12.342-247.525c25.916 0 47 21.084 47 47s-21.084 47-47 47-47-21.084-47-47 21.084-47 47-47z"/>
        <path fill="#e34b4b" d="m499.924 113.287c-91.702-18.227-131.493-26.157-148.924-29.604v382.591l143.076 28.438c9.265 1.839 17.924-5.252 17.924-14.712v-352c0-7.158-5.057-13.318-12.076-14.713z"/>
        <path fill="#e34b4b" d="m161 362.405c-8.812-3.118-16.568-8.93-22.021-16.825-1.019-1.474-25.23-36.585-49.903-79.118-21.237-36.61-54.076-96.426-54.076-138.463 0-14.638 2.244-28.762 6.403-42.047l-23.479-4.666c-9.26-1.836-17.924 5.244-17.924 14.713v352c0 7.157 5.057 13.317 12.076 14.712 92.248 18.335 131.854 26.216 148.924 29.604z"/>
        <path fill="#e34b4b" d="m321 127.999c-2.929.585 0 0 0 0-2.916 16.867-8.771 36.38-18.587 60.594-19.372 47.79-60.951 115.838-89.388 156.981-5.456 7.899-13.213 13.713-22.025 16.831v129.895c15.803-3.156 51.041-10.211 130-26.003z"/>
    </g>
</svg>